<svg xmlns="http://www.w3.org/2000/svg" width="239.357" height="122.673" viewBox="0 0 239.357 122.673">
  <g id="Group_1428" data-name="Group 1428" transform="translate(11.245 7.678)" opacity="0.39">
    <g id="Polygon_2" data-name="Polygon 2" transform="translate(-0.358 -0.005)" fill="#2699fb">
      <path d="M 194.443603515625 112.5 L 189 112.5 L 0 112.5 L -5.443605422973633 112.5 L -1.896315813064575 108.3708953857422 L 92.60368347167969 -1.62910521030426 L 94.5 -3.836447477340698 L 96.39631652832031 -1.62910521030426 L 190.8963165283203 108.3708953857422 L 194.443603515625 112.5 Z" stroke="none"/>
      <path d="M 94.5 0 L 0 110 L 189 110 L 94.5 0 M 94.5 -7.672920227050781 L 199.8871917724609 115 L -10.88719177246094 115 L 94.5 -7.672920227050781 Z" stroke="none" fill="#bce0fd"/>
    </g>
    <g id="Polygon_1" data-name="Polygon 1" transform="translate(117.642 47.995)" fill="#2699fb">
      <path d="M 106.2348556518555 64 L 102 64 L 0 64 L -4.234857082366943 64 L -1.544585704803467 60.72945785522461 L 49.45541381835938 -1.270542860031128 L 51 -3.148271322250366 L 52.54458618164062 -1.270542860031128 L 103.5445861816406 60.72945785522461 L 106.2348556518555 64 Z" stroke="none"/>
      <path d="M 51 0 L 0 62 L 102 62 L 51 0 M 51 -6.296531677246094 L 110.4697341918945 66 L -8.469734191894531 66 L 51 -6.296531677246094 Z" stroke="none" fill="#bce0fd"/>
    </g>
  </g>
</svg>
